<svg height="1em" viewBox="0 0 259 80" fill="none" xmlns="http://www.w3.org/2000/svg">
<g clip-path="url(#clip0)">
<path fill-rule="evenodd" clip-rule="evenodd" d="M80 0L0 0L0 80H70.0006L75.0005 75L80 70.0005V0Z" fill="#D0DCF7"/>
<path d="M80 70H70V80L75 75L80 70Z" fill="#658FF4"/>
<ellipse cx="13" cy="13" rx="5" ry="5" fill="#658FF4"/>
<path d="M48.2664 29.0449C48.7159 28.427 49.4799 28.0716 50.5586 27.9789L51.7271 27.8862C52.6559 27.8244 53.39 27.5463 53.9294 27.052C54.4687 26.5267 54.7383 25.8006 54.7383 24.8736C54.7383 23.9466 54.4537 23.236 53.8844 22.7416C53.3151 22.2472 52.3863 22 51.0979 22C50.7084 22 50.3938 22.0154 50.1541 22.0463L48.9855 22.139C46.1391 22.3553 43.8769 23.3132 42.199 25.0126C40.5511 26.6812 39.6971 28.9986 39.6372 31.9649H38.3338C35.9368 31.9649 34.7383 32.9691 34.7383 34.9775C34.7383 37.0169 35.9368 38.0365 38.3338 38.0365H39.6372V51.1531C39.6372 52.4199 40.0118 53.3778 40.7608 54.0267C41.5398 54.6756 42.4986 55 43.6372 55C44.7758 55 45.7196 54.6756 46.4687 54.0267C47.2477 53.3778 47.6372 52.4199 47.6372 51.1531V38.0365H50.1091C52.5061 38.0365 53.7046 37.0169 53.7046 34.9775C53.7046 32.9691 52.5061 31.9649 50.1091 31.9649H47.6372V31.4087C47.6372 30.4199 47.847 29.632 48.2664 29.0449Z" fill="#658FF4"/>
<path d="M44.084 34.7617C45.2867 34.7617 46.24 35.0843 46.944 35.7297C47.648 36.375 48 37.255 48 38.3697V53.5937C48 54.6203 47.6333 55.471 46.9 56.1457C46.1667 56.791 45.2133 57.1137 44.04 57.1137C42.984 57.1137 42.1187 56.835 41.444 56.2777C40.7693 55.691 40.4173 54.9137 40.388 53.9457C39.7133 55.0017 38.848 55.8083 37.792 56.3657C36.7653 56.923 35.5773 57.2017 34.228 57.2017C31.4413 57.2017 29.3733 56.439 28.024 54.9137C26.6747 53.359 26 51.0123 26 47.8737V38.3697C26 37.255 26.352 36.375 27.056 35.7297C27.76 35.0843 28.7133 34.7617 29.916 34.7617C31.1187 34.7617 32.072 35.0843 32.776 35.7297C33.48 36.375 33.832 37.255 33.832 38.3697V48.0497C33.832 50.1617 34.7413 51.2177 36.56 51.2177C37.616 51.2177 38.4813 50.8363 39.156 50.0737C39.8307 49.311 40.168 48.3137 40.168 47.0817V38.3697C40.168 37.255 40.52 36.375 41.224 35.7297C41.928 35.0843 42.8813 34.7617 44.084 34.7617Z" fill="#658FF4"/>
</g>
<path d="M102.82 54.264C101.617 54.264 100.649 53.8973 99.916 53.164C99.1826 52.4307 98.816 51.4627 98.816 50.26V26.72C98.816 25.5173 99.1386 24.5933 99.784 23.948C100.429 23.3026 101.353 22.98 102.556 22.98H117.34C118.66 22.98 119.628 23.244 120.244 23.772C120.86 24.2707 121.168 25.0773 121.168 26.192C121.168 27.2773 120.845 28.0693 120.2 28.568C119.584 29.0666 118.631 29.316 117.34 29.316H106.78V35.036H116.46C117.751 35.036 118.704 35.3 119.32 35.828C119.965 36.356 120.288 37.1627 120.288 38.248C120.288 39.3333 119.965 40.1253 119.32 40.624C118.704 41.1227 117.751 41.372 116.46 41.372H106.78V50.26C106.78 51.492 106.413 52.4747 105.68 53.208C104.976 53.912 104.023 54.264 102.82 54.264Z" fill="#658FF4"/>
<path d="M129.403 54.264C128.289 54.264 127.35 53.9706 126.587 53.384C125.854 52.768 125.487 51.8587 125.487 50.656V35.52C125.487 34.3173 125.854 33.4227 126.587 32.836C127.35 32.22 128.289 31.912 129.403 31.912C130.518 31.912 131.442 32.22 132.175 32.836C132.938 33.4227 133.319 34.3173 133.319 35.52V50.656C133.319 51.8587 132.938 52.768 132.175 53.384C131.442 53.9706 130.518 54.264 129.403 54.264ZM129.403 28.832C128.083 28.832 127.027 28.4947 126.235 27.82C125.473 27.116 125.091 26.192 125.091 25.048C125.091 23.904 125.473 22.9947 126.235 22.32C127.027 21.6453 128.083 21.308 129.403 21.308C130.694 21.308 131.735 21.6453 132.527 22.32C133.319 22.9947 133.715 23.904 133.715 25.048C133.715 26.192 133.319 27.116 132.527 27.82C131.765 28.4947 130.723 28.832 129.403 28.832Z" fill="#658FF4"/>
<path d="M152.426 31.824C155.008 31.824 156.929 32.6013 158.19 34.156C159.452 35.6813 160.082 38.0133 160.082 41.152V50.656C160.082 51.7706 159.73 52.6507 159.026 53.296C158.322 53.9413 157.369 54.264 156.166 54.264C154.964 54.264 154.01 53.9413 153.306 53.296C152.602 52.6507 152.25 51.7706 152.25 50.656V41.504C152.25 40.2133 152.016 39.2747 151.546 38.688C151.106 38.1013 150.432 37.808 149.522 37.808C148.349 37.808 147.41 38.1893 146.706 38.952C146.032 39.6853 145.694 40.6827 145.694 41.944V50.656C145.694 51.7706 145.342 52.6507 144.638 53.296C143.934 53.9413 142.981 54.264 141.778 54.264C140.576 54.264 139.622 53.9413 138.918 53.296C138.214 52.6507 137.862 51.7706 137.862 50.656V35.432C137.862 34.4053 138.229 33.5693 138.962 32.924C139.696 32.2493 140.649 31.912 141.822 31.912C142.937 31.912 143.817 32.22 144.462 32.836C145.137 33.452 145.474 34.2587 145.474 35.256C146.237 34.1413 147.22 33.2907 148.422 32.704C149.625 32.1173 150.96 31.824 152.426 31.824Z" fill="#658FF4"/>
<path d="M174.579 31.824C177.923 31.824 180.387 32.6307 181.971 34.244C183.584 35.828 184.391 38.248 184.391 41.504V50.7C184.391 51.8147 184.053 52.6947 183.379 53.34C182.733 53.956 181.824 54.264 180.651 54.264C179.624 54.264 178.773 53.9706 178.099 53.384C177.453 52.7973 177.101 52.0053 177.043 51.008C176.632 52.064 175.943 52.8853 174.975 53.472C174.007 54.0587 172.848 54.352 171.499 54.352C170.003 54.352 168.653 54.0587 167.451 53.472C166.248 52.856 165.295 52.02 164.591 50.964C163.916 49.8787 163.579 48.6613 163.579 47.312C163.579 45.7573 163.975 44.5253 164.767 43.616C165.588 42.6773 166.879 42.0027 168.639 41.592C170.399 41.1813 172.775 40.976 175.767 40.976H176.955V40.448C176.955 39.4213 176.72 38.688 176.251 38.248C175.781 37.7787 174.989 37.544 173.875 37.544C172.672 37.544 170.912 37.9547 168.595 38.776C167.92 39.0107 167.348 39.128 166.879 39.128C166.145 39.128 165.559 38.864 165.119 38.336C164.679 37.808 164.459 37.1187 164.459 36.268C164.459 35.6227 164.591 35.0947 164.855 34.684C165.119 34.2733 165.544 33.9067 166.131 33.584C167.157 33.056 168.448 32.6307 170.003 32.308C171.557 31.9853 173.083 31.824 174.579 31.824ZM173.347 49.116C174.403 49.116 175.268 48.7493 175.943 48.016C176.617 47.2533 176.955 46.2853 176.955 45.112V44.584H176.251C174.373 44.584 173.039 44.76 172.247 45.112C171.455 45.4347 171.059 45.992 171.059 46.784C171.059 47.4587 171.264 48.016 171.675 48.456C172.115 48.896 172.672 49.116 173.347 49.116Z" fill="#658FF4"/>
<path d="M203.344 31.824C205.925 31.824 207.847 32.6013 209.108 34.156C210.369 35.6813 211 38.0133 211 41.152V50.656C211 51.7706 210.648 52.6507 209.944 53.296C209.24 53.9413 208.287 54.264 207.084 54.264C205.882 54.264 204.928 53.9413 204.224 53.296C203.52 52.6507 203.168 51.7706 203.168 50.656V41.504C203.168 40.2133 202.933 39.2747 202.464 38.688C202.024 38.1013 201.349 37.808 200.44 37.808C199.267 37.808 198.328 38.1893 197.624 38.952C196.95 39.6853 196.612 40.6827 196.612 41.944V50.656C196.612 51.7706 196.26 52.6507 195.556 53.296C194.852 53.9413 193.899 54.264 192.696 54.264C191.493 54.264 190.54 53.9413 189.836 53.296C189.132 52.6507 188.78 51.7706 188.78 50.656V35.432C188.78 34.4053 189.147 33.5693 189.88 32.924C190.613 32.2493 191.567 31.912 192.74 31.912C193.855 31.912 194.735 32.22 195.38 32.836C196.055 33.452 196.392 34.2587 196.392 35.256C197.155 34.1413 198.137 33.2907 199.34 32.704C200.543 32.1173 201.877 31.824 203.344 31.824Z" fill="#658FF4"/>
<path d="M225.849 54.352C222.329 54.352 219.542 53.3547 217.489 51.36C215.435 49.3653 214.409 46.652 214.409 43.22C214.409 40.9613 214.907 38.9667 215.905 37.236C216.902 35.5053 218.295 34.1707 220.085 33.232C221.903 32.2933 223.971 31.824 226.289 31.824C227.521 31.824 228.753 31.9853 229.985 32.308C231.217 32.6307 232.302 33.0853 233.241 33.672C234.15 34.2293 234.605 35.08 234.605 36.224C234.605 37.1333 234.385 37.8813 233.945 38.468C233.534 39.0253 232.991 39.304 232.317 39.304C231.877 39.304 231.451 39.2453 231.041 39.128C230.63 38.9813 230.175 38.776 229.677 38.512C229.09 38.248 228.591 38.0573 228.181 37.94C227.77 37.7933 227.315 37.72 226.817 37.72C223.913 37.72 222.461 39.4946 222.461 43.044C222.461 44.804 222.827 46.1533 223.561 47.092C224.323 48.0013 225.409 48.456 226.817 48.456C227.315 48.456 227.77 48.3973 228.181 48.28C228.621 48.1333 229.105 47.928 229.633 47.664C230.219 47.4 230.689 47.2093 231.041 47.092C231.422 46.9453 231.833 46.872 232.273 46.872C232.947 46.872 233.49 47.1653 233.901 47.752C234.341 48.3093 234.561 49.0427 234.561 49.952C234.561 50.5093 234.443 51.0227 234.209 51.492C233.974 51.932 233.651 52.2693 233.241 52.504C231.217 53.736 228.753 54.352 225.849 54.352Z" fill="#658FF4"/>
<path d="M255.021 47.048C255.695 47.048 256.238 47.312 256.649 47.84C257.089 48.368 257.309 49.0573 257.309 49.908C257.309 51.0813 256.737 51.976 255.593 52.592C254.595 53.0907 253.407 53.516 252.029 53.868C250.679 54.1907 249.433 54.352 248.289 54.352C245.883 54.352 243.786 53.8973 241.997 52.988C240.207 52.0786 238.829 50.7733 237.861 49.072C236.893 47.3706 236.409 45.376 236.409 43.088C236.409 40.9173 236.863 38.9813 237.773 37.28C238.711 35.5493 240.002 34.2147 241.645 33.276C243.317 32.308 245.194 31.824 247.277 31.824C249.301 31.824 251.075 32.264 252.601 33.144C254.126 34.024 255.299 35.2706 256.121 36.884C256.971 38.4973 257.397 40.3893 257.397 42.56C257.397 43.2346 257.235 43.7627 256.913 44.144C256.619 44.496 256.179 44.672 255.593 44.672H243.977C244.182 46.08 244.637 47.092 245.341 47.708C246.045 48.324 247.086 48.632 248.465 48.632C249.198 48.632 249.873 48.5587 250.489 48.412C251.105 48.236 251.794 48.0013 252.557 47.708C252.997 47.532 253.422 47.3853 253.833 47.268C254.273 47.1213 254.669 47.048 255.021 47.048ZM247.497 37.104C246.47 37.104 245.649 37.4413 245.033 38.116C244.417 38.7613 244.05 39.7147 243.933 40.976H250.841C250.665 38.3947 249.55 37.104 247.497 37.104Z" fill="#658FF4"/>
<defs>
<clipPath id="clip0">
<path d="M0 8C0 3.58172 3.58172 0 8 0H72C76.4183 0 80 3.58172 80 8V72C80 76.4183 76.4183 80 72 80H8C3.58172 80 0 76.4183 0 72V8Z" fill="white"/>
</clipPath>
</defs>
</svg>
