<svg width="80" height="80" viewBox="0 0 80 80" fill="none" xmlns="http://www.w3.org/2000/svg">
<g clip-path="url(#clip0)">
<path fill-rule="evenodd" clip-rule="evenodd" d="M80 0L0 0L0 80H70.0006L75.0005 75L80 70.0005V0Z" fill="#D0DCF7"/>
<path d="M80 70H70V80L75 75L80 70Z" fill="#658FF4"/>
<ellipse cx="13" cy="13" rx="5" ry="5" fill="#658FF4"/>
<path d="M48.2664 29.0449C48.7159 28.427 49.4799 28.0716 50.5586 27.9789L51.7271 27.8862C52.6559 27.8244 53.39 27.5463 53.9294 27.052C54.4687 26.5267 54.7383 25.8006 54.7383 24.8736C54.7383 23.9466 54.4537 23.236 53.8844 22.7416C53.3151 22.2472 52.3863 22 51.0979 22C50.7084 22 50.3938 22.0154 50.1541 22.0463L48.9855 22.139C46.1391 22.3553 43.8769 23.3132 42.199 25.0126C40.5511 26.6812 39.6971 28.9986 39.6372 31.9649H38.3338C35.9368 31.9649 34.7383 32.9691 34.7383 34.9775C34.7383 37.0169 35.9368 38.0365 38.3338 38.0365H39.6372V51.1531C39.6372 52.4199 40.0118 53.3778 40.7608 54.0267C41.5398 54.6756 42.4986 55 43.6372 55C44.7758 55 45.7196 54.6756 46.4687 54.0267C47.2477 53.3778 47.6372 52.4199 47.6372 51.1531V38.0365H50.1091C52.5061 38.0365 53.7046 37.0169 53.7046 34.9775C53.7046 32.9691 52.5061 31.9649 50.1091 31.9649H47.6372V31.4087C47.6372 30.4199 47.847 29.632 48.2664 29.0449Z" fill="#658FF4"/>
<path d="M44.084 34.7617C45.2867 34.7617 46.24 35.0843 46.944 35.7297C47.648 36.375 48 37.255 48 38.3697V53.5937C48 54.6203 47.6333 55.471 46.9 56.1457C46.1667 56.791 45.2133 57.1137 44.04 57.1137C42.984 57.1137 42.1187 56.835 41.444 56.2777C40.7693 55.691 40.4173 54.9137 40.388 53.9457C39.7133 55.0017 38.848 55.8083 37.792 56.3657C36.7653 56.923 35.5773 57.2017 34.228 57.2017C31.4413 57.2017 29.3733 56.439 28.024 54.9137C26.6747 53.359 26 51.0123 26 47.8737V38.3697C26 37.255 26.352 36.375 27.056 35.7297C27.76 35.0843 28.7133 34.7617 29.916 34.7617C31.1187 34.7617 32.072 35.0843 32.776 35.7297C33.48 36.375 33.832 37.255 33.832 38.3697V48.0497C33.832 50.1617 34.7413 51.2177 36.56 51.2177C37.616 51.2177 38.4813 50.8363 39.156 50.0737C39.8307 49.311 40.168 48.3137 40.168 47.0817V38.3697C40.168 37.255 40.52 36.375 41.224 35.7297C41.928 35.0843 42.8813 34.7617 44.084 34.7617Z" fill="#658FF4"/>
</g>
<defs>
<clipPath id="clip0">
<path d="M0 8C0 3.58172 3.58172 0 8 0H72C76.4183 0 80 3.58172 80 8V72C80 76.4183 76.4183 80 72 80H8C3.58172 80 0 76.4183 0 72V8Z" fill="white"/>
</clipPath>
</defs>
</svg>
